<?xml version="1.0" encoding="utf-8"?>
<!-- Generator: Adobe Illustrator 22.1.0, SVG Export Plug-In . SVG Version: 6.00 Build 0)  -->
<svg version="1.1" id="Layer_1" xmlns="http://www.w3.org/2000/svg" xmlns:xlink="http://www.w3.org/1999/xlink" x="0px" y="0px"
	 viewBox="0 0 1080 1080" style="enable-background:new 0 0 1080 1080;" xml:space="preserve">
<style type="text/css">
	.st0{fill:none;stroke:#FFFFFF;stroke-width:16;stroke-miterlimit:10;}
</style>
<path class="st0" d="M2118,884.9c30.4,0,55.3-24.9,55.3-55.3v-89.8c0-30.4-24.9-55.3-55.3-55.3h-193.5c-30.4,0-55.3,24.9-55.3,55.3
	v89.8c0,30.4,24.9,55.3,55.3,55.3h127.8l39.7,62.3L2118,884.9z"/>
<g>
	<circle class="st0" cx="540" cy="478" r="65.4"/>
	<path class="st0" d="M644.7,627.9L644.7,627.9c0-29-23.7-52.7-52.7-52.7H488c-29,0-52.7,23.7-52.7,52.7v0"/>
	<polyline class="st0" points="644.7,627.9 644.7,667.5 435.3,667.5 435.3,627.9 	"/>
</g>
</svg>
