<?xml version="1.0" encoding="utf-8"?>
<!-- Generator: Adobe Illustrator 22.1.0, SVG Export Plug-In . SVG Version: 6.00 Build 0)  -->
<svg version="1.1" id="Layer_1" xmlns="http://www.w3.org/2000/svg" xmlns:xlink="http://www.w3.org/1999/xlink" x="0px" y="0px"
	 viewBox="0 0 1080 1080" style="enable-background:new 0 0 1080 1080;" xml:space="preserve">
<style type="text/css">
	.st0{fill:none;stroke:#FFFFFF;stroke-width:16;stroke-miterlimit:10;}
	.st1{fill:#231F20;}
	.st2{fill:#E2DED5;}
	.st3{fill-rule:evenodd;clip-rule:evenodd;fill:#231F20;}
</style>
<path class="st0" d="M2118,884.9c30.4,0,55.3-24.9,55.3-55.3v-89.8c0-30.4-24.9-55.3-55.3-55.3h-193.5c-30.4,0-55.3,24.9-55.3,55.3
	v89.8c0,30.4,24.9,55.3,55.3,55.3h127.8l39.7,62.3L2118,884.9z"/>
<g>
	<path class="st1" d="M1481.6,594.4c-8.4-4.1-13.9-12-16.9-20.7c-1.2-3.6-2.1-7.3-2.6-11.1c-0.2-1.7-0.4-13.1-0.5-14.8
		c-0.1-1.4,0-3-0.4-4.4c-0.9-2.5-6.2-4-8.7-3.3c-1.9,0.6-1.9,3-1.8,4.6c0.2,2.5,0.2,14.6,0.2,17.1c0,5,0,10-0.1,15
		c0,6.5,0,13.1-0.1,19.6c0,7.5-0.1,15.1-0.1,22.6c0,8-0.1,16-0.1,23.9c0,7.9-0.1,15.8-0.1,23.7c0,7.2,0,14.5-0.1,21.7
		c0,6.1,0,12.1-0.1,18.2c0,4.3,0,8.7,0,13c0,2.1,0,4.1,0,6.2c0,0,0,0.3,0,0.3c-10.6-5.3-26.8-4.3-42.1,3.6
		c-21.2,11-32.5,31.3-25.3,45.3c7.3,14,25.6,17,46.8,6c17.7-9.2,29.3-24.9,29.3-37.9V615.8c25.9-0.8,49.9,30.6,49.9,30.6
		c24.2,42.6-15,85-15,85c-2.6,8,2.7,6.3,2.7,6.3c13.9-8.4,30-34.7,30-34.7C1563.6,641,1481.6,594.4,1481.6,594.4z"/>
</g>
<g>
	<path class="st1" d="M1727.9,312.1h150.5c26.7,0,48.6-21.9,48.6-48.6V112.9c0-26.7-21.9-48.6-48.6-48.6h-150.5
		c-26.7,0-48.6,21.9-48.6,48.6v150.5C1679.2,290.2,1701.1,312.1,1727.9,312.1z"/>
	<polygon class="st2" points="1835.9,59.9 1835.9,151 1805.5,120.6 1779.2,146.9 1779.2,59.9 	"/>
</g>
<g>
	<path class="st3" d="M507.7,499.1h106.9v91.7c0,8.5-6.7,15.5-15.2,15.5H461.9c-8.5,0-15.5-7.1-15.5-15.5V483.9
		c0-8.5,7.1-15.2,15.5-15.2h137.6c8.5,0,15.2,6.7,15.2,15.2H507.7V499.1z"/>
	<path class="st3" d="M667.5,462.4c6.7-5.3,12-2.5,12,6.4v137.6c0,8.5-5.3,11.3-12,6l-36.7-27.5c-6.7-4.9-12.3-16.2-12.3-24.7v-45.9
		c0-8.1,5.6-19.1,12.3-24.3L667.5,462.4z"/>
	<path class="st3" d="M473.9,434.5c0,14.8,12,26.8,26.8,26.8c15.2,0,27.2-12,27.2-26.8c0-15.2-12-27.2-27.2-27.2
		C485.9,407.4,473.9,419.3,473.9,434.5L473.9,434.5z"/>
	<path class="st3" d="M538.4,434.5c0,14.8,12,26.8,26.8,26.8c15.2,0,27.2-12,27.2-26.8c0-15.2-12-27.2-27.2-27.2
		C550.4,407.4,538.4,419.3,538.4,434.5L538.4,434.5z"/>
</g>
</svg>
