<?xml version="1.0" encoding="utf-8"?>
<!-- Generator: Adobe Illustrator 22.1.0, SVG Export Plug-In . SVG Version: 6.00 Build 0)  -->
<svg version="1.1" id="Layer_1" xmlns="http://www.w3.org/2000/svg" xmlns:xlink="http://www.w3.org/1999/xlink" x="0px" y="0px"
	 viewBox="0 0 1080 1080" style="enable-background:new 0 0 1080 1080;" xml:space="preserve">
<style type="text/css">
	.st0{fill:none;stroke:#FFFFFF;stroke-width:16;stroke-miterlimit:10;}
	.st1{fill:#231F20;}
</style>
<path class="st0" d="M2118,884.9c30.4,0,55.3-24.9,55.3-55.3v-89.8c0-30.4-24.9-55.3-55.3-55.3h-193.5c-30.4,0-55.3,24.9-55.3,55.3
	v89.8c0,30.4,24.9,55.3,55.3,55.3h127.8l39.7,62.3L2118,884.9z"/>
<g>
	<path class="st1" d="M590.5,439.3c-8.4-4.1-13.9-12-16.9-20.7c-1.2-3.6-2.1-7.3-2.6-11.1c-0.2-1.7-0.4-13.1-0.5-14.8
		c-0.1-1.4,0-3-0.4-4.4c-0.9-2.5-6.2-4-8.7-3.3c-1.9,0.6-1.9,3-1.8,4.6c0.2,2.5,0.2,14.6,0.2,17.1c0,5,0,10-0.1,15
		c0,6.5,0,13.1-0.1,19.6c0,7.5-0.1,15.1-0.1,22.6c0,8-0.1,16-0.1,23.9c0,7.9-0.1,15.8-0.1,23.7c0,7.2,0,14.5-0.1,21.7
		c0,6.1,0,12.1-0.1,18.2c0,4.3,0,8.7,0,13c0,2.1,0,4.1,0,6.2c0,0,0,0.3,0,0.3c-10.6-5.3-26.8-4.3-42.1,3.6
		c-21.2,11-32.5,31.3-25.3,45.3c7.3,14,25.6,17,46.8,6c17.7-9.2,29.3-24.9,29.3-37.9V460.7c25.9-0.8,49.9,30.6,49.9,30.6
		c24.2,42.6-15,85-15,85c-2.6,8,2.7,6.3,2.7,6.3c13.9-8.4,30-34.7,30-34.7C672.5,485.9,590.5,439.3,590.5,439.3z"/>
</g>
</svg>
