<?xml version="1.0" encoding="utf-8"?>
<!-- Generator: Adobe Illustrator 22.1.0, SVG Export Plug-In . SVG Version: 6.00 Build 0)  -->
<svg version="1.1" id="Layer_1" xmlns="http://www.w3.org/2000/svg" xmlns:xlink="http://www.w3.org/1999/xlink" x="0px" y="0px"
	 viewBox="0 0 1080 1080" style="enable-background:new 0 0 1080 1080;" xml:space="preserve">
<style type="text/css">
	.st0{fill:none;stroke:#FFFFFF;stroke-width:16;stroke-miterlimit:10;}
	.st1{fill:#FFFFFF;}
</style>
<path class="st0" d="M2118,884.9c30.4,0,55.3-24.9,55.3-55.3v-89.8c0-30.4-24.9-55.3-55.3-55.3h-193.5c-30.4,0-55.3,24.9-55.3,55.3
	v89.8c0,30.4,24.9,55.3,55.3,55.3h127.8l39.7,62.3L2118,884.9z"/>
<g>
	<g>
		<path class="st1" d="M631.5,667.4H447.3c-15.6,0-28.3-12.7-28.3-28.3l-0.1-79.6l-3.1,0l-1.3-0.3c-6.1-1.6-11.4-5.1-15.3-10.1
			c-9.5-12.3-7.2-30.1,5.1-39.6l118.3-91.1c9.8-7.6,24.6-7.6,34.5,0l118.3,91.1c6,4.6,9.8,11.3,10.8,18.8c1,7.5-1,14.9-5.6,20.9
			c-5.1,6.6-12.7,10.6-20.9,11v79C659.8,654.7,647.1,667.4,631.5,667.4z M418.9,538.2l21.3,0.1l0.1,100.8c0,3.8,3.1,7,6.9,7h184.2
			c3.8,0,6.9-3.1,6.9-6.9V538.8h19.9c2.2,0,4.2-1,5.5-2.7c1.1-1.5,1.6-3.3,1.4-5.1c-0.2-1.9-1.2-3.5-2.6-4.6l-118.3-91.1
			c-2.4-1.8-6.1-1.8-8.5,0l-118.3,91.1c-3,2.3-3.6,6.7-1.3,9.7C416.9,537,417.8,537.7,418.9,538.2z"/>
	</g>
</g>
</svg>
